<?xml version="1.0" standalone="no"?>
<!DOCTYPE svg PUBLIC "-//W3C//DTD SVG 20010904//EN"
 "http://www.w3.org/TR/2001/REC-SVG-20010904/DTD/svg10.dtd">
<svg version="1.0" xmlns="http://www.w3.org/2000/svg"
 width="488.000000pt" height="512.000000pt" viewBox="0 0 488.000000 512.000000"
 preserveAspectRatio="xMidYMid meet">

<g transform="translate(0.000000,512.000000) scale(0.100000,-0.100000)"
fill="#000000" stroke="none">
<path d="M2426 5109 c-78 -8 -242 -45 -261 -58 -5 -4 -32 -16 -60 -26 -242
-89 -484 -271 -652 -490 -151 -196 -264 -458 -294 -683 -14 -107 -5 -384 15
-462 67 -262 150 -413 303 -553 117 -108 243 -173 422 -218 110 -28 301 -52
221 -28 -168 50 -214 66 -275 97 -70 34 -186 101 -195 112 -3 3 -31 27 -62 54
-98 82 -188 203 -244 326 -13 30 -29 63 -34 72 -19 34 -50 174 -62 280 -26
232 30 514 147 748 42 84 165 252 165 226 0 -3 -9 -39 -20 -78 -36 -132 -18
-307 45 -440 19 -40 35 -80 35 -90 0 -22 60 -85 85 -90 25 -4 34 31 11 44 -9
5 -16 17 -16 26 0 9 -8 22 -19 29 -40 25 -63 268 -38 400 18 95 82 252 135
331 48 72 119 150 187 202 61 47 79 49 42 4 -45 -56 -88 -132 -114 -205 -21
-60 -27 -97 -31 -190 -4 -124 8 -190 50 -273 28 -55 118 -166 161 -199 l36
-27 -44 92 c-90 192 -98 379 -26 562 25 62 121 195 192 263 83 81 198 173 215
173 7 0 -3 -28 -22 -63 -54 -102 -131 -306 -151 -397 -24 -115 -24 -328 1
-425 20 -77 82 -221 130 -300 75 -125 174 -243 346 -415 275 -273 380 -402
461 -564 32 -66 34 -77 38 -190 l3 -121 20 49 c29 74 34 186 13 271 -42 167
-104 251 -449 605 -304 311 -430 514 -467 751 -25 157 8 416 69 550 74 162
112 239 135 276 15 24 27 45 27 48 0 7 -77 4 -174 -6z"/>
<path d="M597 3133 c-16 -26 -57 -145 -72 -209 -32 -139 -45 -265 -45 -441 1
-323 45 -522 153 -685 77 -115 202 -153 315 -95 28 15 52 28 52 30 0 1 -42 2
-92 2 -108 0 -143 13 -209 78 -50 50 -97 148 -130 272 -23 85 -24 106 -24 365
1 245 3 288 23 390 36 181 37 183 70 81 28 -87 133 -261 208 -346 88 -100 228
-210 385 -304 36 -21 149 -64 155 -58 2 1 -25 17 -60 35 -35 18 -71 40 -82 50
-10 9 -48 40 -84 69 -130 102 -282 278 -394 456 -48 76 -127 228 -147 282 -9
25 -18 35 -22 28z"/>
<path d="M4491 3088 c-145 -343 -434 -692 -698 -841 -47 -26 -58 -37 -38 -32
50 11 165 70 255 131 227 154 403 374 475 592 20 62 31 58 45 -15 42 -225 62
-560 40 -684 -44 -253 -65 -318 -125 -397 -66 -87 -157 -126 -270 -117 l-60 5
60 -30 c146 -73 266 -9 360 194 77 165 112 391 102 656 -8 211 -60 476 -111
568 -12 23 -13 23 -35 -30z"/>
<path d="M4620 1655 c-41 -44 -164 -131 -208 -148 -54 -21 -114 -22 -155 -1
l-32 16 23 -23 c19 -20 32 -24 80 -23 66 1 128 27 190 80 52 44 59 43 31 -3
-32 -54 -10 -29 50 55 54 76 59 87 21 47z"/>
<path d="M530 1635 c39 -53 60 -75 60 -65 0 6 19 -4 43 -23 46 -37 114 -71
164 -82 37 -7 95 8 113 31 11 12 7 12 -23 -1 -85 -36 -163 -8 -312 112 -33 26
-53 39 -45 28z"/>
<path d="M1708 1453 c31 -39 75 -81 143 -135 59 -48 303 -127 325 -105 8 8
-48 125 -73 152 -31 35 -96 82 -138 100 -28 13 -76 19 -164 23 l-125 5 32 -40z"/>
<path d="M3197 1476 c-51 -14 -127 -63 -165 -105 -24 -28 -65 -102 -77 -140
-7 -24 -7 -24 46 -17 99 13 205 56 289 115 66 47 150 134 150 155 0 11 -196 4
-243 -8z"/>
<path d="M546 1313 c10 -37 109 -157 175 -211 77 -64 227 -141 375 -192 32
-12 217 -61 409 -110 193 -48 373 -97 400 -108 210 -83 321 -166 382 -285 20
-40 42 -94 49 -122 l12 -50 22 50 c93 204 -32 339 -430 464 -74 23 -162 50
-195 61 -33 10 -139 39 -235 64 -349 90 -626 195 -780 294 -30 19 -85 65 -122
100 -43 42 -65 58 -62 45z"/>
<path d="M4540 1274 c-73 -72 -167 -134 -292 -194 -141 -66 -396 -151 -648
-215 -80 -20 -172 -45 -205 -55 -33 -10 -120 -38 -194 -60 -234 -72 -401 -171
-445 -264 -22 -47 -20 -124 5 -191 11 -30 24 -55 27 -55 4 0 13 24 20 52 34
147 134 263 290 338 45 22 85 40 88 40 3 0 25 9 48 20 44 19 175 55 466 125
372 90 571 168 708 279 61 50 148 152 181 215 16 29 14 27 -49 -35z"/>
<path d="M2485 276 c-22 -7 -54 -20 -70 -28 -31 -16 -71 -55 -64 -62 2 -2 30
-11 61 -20 76 -22 115 -56 125 -109 12 -59 40 -63 49 -7 8 52 51 96 107 110
23 6 53 15 67 19 l25 8 -33 31 c-36 34 -142 72 -196 71 -17 0 -49 -6 -71 -13z"/>
</g>
</svg>
